#!OML:ASF H:\Terrain\Patient Classification 1\Terrain2\Thursday\justin.ASF
:FULLY-SPECIFIED
:DEGREES
1469
root -12.6319 17.0638 -22.2408 285.453 78.0363 283.684
lowerback 3.7123 0.6496 9.30895
upperback 2.70029 1.33706 5.32965
thorax 0.795354 0.845426 0.27527
lowerneck -14.9752 -1.98993 -8.17584
upperneck 36.2488 0.977355 0.257924
head 15.2123 -0.223958 1.83948
rclavicle 2.28602e-015 7.87187e-014
rhumerus -28.9454 -10.0484 -76.8481
rradius 26.6404
rwrist -9.78924
rhand -21.9669 13.466
rfingers 7.12502
rthumb 4.44074 -16.4674
lclavicle 2.28602e-015 7.87187e-014
lhumerus -35.8723 9.92289 86.1661
lradius 31.5634
lwrist 3.17188
lhand -17.3703 21.2834
lfingers 7.12502
lthumb 8.878 51.0767
rfemur -0.931648 -5.42397 34.1881
rtibia 18.3213
rfoot -16.0626 7.28096
rtoes 27.1299
lfemur -24.9953 0.285321 -5.74627
ltibia 58.0336
lfoot -11.8534 -1.12086
ltoes 2.4757
1470
root -12.6037 17.0619 -22.2259 286.426 77.8382 284.805
lowerback 3.98332 0.845644 9.48176
upperback 2.75504 1.6385 5.32471
thorax 0.725312 0.998165 0.162943
lowerneck -14.9653 -2.07178 -8.38582
upperneck 36.3173 0.779625 0.657631
head 15.2486 -0.280856 2.01353
rclavicle 1.45113e-014 -1.43125e-014
rhumerus -29.0378 -10.7248 -76.8119
rradius 26.8014
rwrist -10.5069
rhand -22.8842 13.0043
rfingers 7.12502
rthumb 3.55492 -16.9458
lclavicle 1.45113e-014 -1.43125e-014
lhumerus -35.772 9.38665 86.4755
lradius 31.779
lwrist 2.97326
lhand -17.2253 21.2899
lfingers 7.12502
lthumb 9.01795 51.0771
rfemur -0.438726 -4.10572 34.5403
rtibia 17.9686
rfoot -16.1771 6.06983
rtoes 26.6556
lfemur -25.5322 0.938472 -5.78924
ltibia 58.826
lfoot -11.8493 -1.01418
ltoes 0.388494
1471
root -12.5723 17.063 -22.2155 288.045 78.8867 286.445
lowerback 4.04958 0.923543 8.39116
upperback 2.7468 1.69112 4.99795
thorax 0.657169 0.999544 0.416753
lowerneck -14.8806 -2.09367 -8.34693
upperneck 36.3724 0.683791 0.792187
head 15.2576 -0.295981 2.0488
rclavicle -9.14409e-015 1.15295e-014
rhumerus -28.923 -11.9291 -76.473
rradius 26.3516
rwrist -9.83359
rhand -23.0274 13.4318
rfingers 7.12502
rthumb 3.41668 -16.5206
lclavicle -9.14409e-015 1.15295e-014
lhumerus -35.7806 9.32585 86.5918
lradius 31.9898
lwrist 2.83681
lhand -17.0138 21.1046
lfingers 7.12502
lthumb 9.22205 50.883
rfemur -0.0705472 -4.40531 33.3583
rtibia 17.4307
rfoot -16.129 6.25493
rtoes 26.7288
lfemur -26.1891 1.30886 -7.32451
ltibia 59.3835
lfoot -11.8263 -0.706776
ltoes -2.81435
1472
root -12.5336 17.0658 -22.2007 288.642 79.4328 287.031
lowerback 4.02341 0.839263 7.75923
upperback 2.72008 1.54248 4.79201
thorax 0.622773 0.911005 0.554728
lowerneck -14.8881 -2.09673 -8.02267
upperneck 36.5635 0.679074 0.575614
head 15.3527 -0.28536 1.904
rclavicle 3.27995e-015 5.1684e-015
rhumerus -28.7688 -12.1378 -76.324
rradius 25.6979
rwrist -7.94594
rhand -21.8821 13.7297
rfingers 7.12502
rthumb 4.52263 -16.202
lclavicle 3.27995e-015 5.1684e-015
lhumerus -35.8826 8.76036 86.6952
lradius 32.2191
lwrist 3.49676
lhand -17.1183 21.0743
lfingers 7.12502
lthumb 9.1212 50.8571
rfemur 0.334134 -4.92829 32.7272
rtibia 16.7948
rfoot -15.9201 6.79089
rtoes 26.4283
lfemur -26.8373 1.46448 -8.11525
ltibia 59.7996
lfoot -11.9746 -1.17387
ltoes 1.19487
1473
root -12.4947 17.068 -22.1807 288.265 79.0025 286.674
lowerback 4.11326 0.735831 7.99271
upperback 2.69245 1.43397 4.94049
thorax 0.541178 0.859486 0.581053
lowerneck -15.0424 -2.17201 -8.03542
upperneck 36.8918 0.630994 0.542846
head 15.5559 -0.31814 1.89189
rclavicle -2.32578e-014 -6.71892e-014
rhumerus -28.8445 -9.19635 -77.3949
rradius 26.1972
rwrist -12.018
rhand -23.2418 13.1298
rfingers 7.12502
rthumb 3.20955 -16.8258
lclavicle -2.32578e-014 -6.71892e-014
lhumerus -36.0599 8.48228 86.8632
lradius 32.4268
lwrist 3.68317
lhand -17.6833 20.889
lfingers 7.12502
lthumb 8.57597 50.6949
rfemur 0.722442 -4.42463 33.2493
rtibia 16.2772
rfoot -15.8458 6.73581
rtoes 26.3236
lfemur -27.4363 1.44641 -7.56195
ltibia 60.1358
lfoot -11.8334 -2.8455
ltoes 15.6105
1474
root -12.4553 17.0753 -22.1677 288.02 78.7022 286.328
lowerback 4.09145 0.64662 8.25188
upperback 2.66829 1.33066 5.06301
thorax 0.527082 0.812397 0.56906
lowerneck -15.1897 -2.16119 -8.04333
upperneck 37.0989 0.715563 0.466061
head 15.692 -0.299015 1.88009
rclavicle -1.41137e-014 -2.54444e-014
rhumerus -28.8613 -8.05946 -77.6307
rradius 26.4357
rwrist -13.2377
rhand -23.4191 12.5454
rfingers 7.12502
rthumb 3.03841 -17.4127
lclavicle -1.41137e-014 -2.54444e-014
lhumerus -36.2297 8.64814 86.9655
lradius 32.7927
lwrist 3.42422
lhand -18.1551 20.6353
lfingers 7.12502
lthumb 8.12065 50.4592
rfemur 1.0048 -4.10025 33.6221
rtibia 15.7606
rfoot -15.7314 6.66476
rtoes 27.3772
lfemur -28.1439 1.33286 -7.19168
ltibia 60.314
lfoot -11.4123 -4.30727
ltoes 27.9536
1475
root -12.4147 17.0798 -22.1561 288.166 78.772 286.34
lowerback 4.04282 0.581184 8.26207
upperback 2.62905 1.24014 5.05859
thorax 0.509342 0.765638 0.56201
lowerneck -15.0832 -2.04058 -7.82199
upperneck 37.0042 0.922599 0.169319
head 15.6107 -0.219009 1.74755
rclavicle -1.66979e-014 -3.69739e-014
rhumerus -28.7271 -8.55369 -77.3324
rradius 26.092
rwrist -12.011
rhand -22.7747 12.8867
rfingers 7.12502
rthumb 3.66062 -17.0617
lclavicle -1.66979e-014 -3.69739e-014
lhumerus -36.258 9.75176 86.5588
lradius 32.8783
lwrist 2.25729
lhand -17.5676 20.0204
lfingers 7.12502
lthumb 8.6876 49.8217
rfemur 1.27586 -4.23756 33.6226
rtibia 15.2724
rfoot -15.4737 6.39901
rtoes 27.9264
lfemur -28.9206 2.03853 -7.69922
ltibia 60.3515
lfoot -11.9046 -3.79379
ltoes 18.8771
1476
root -12.376 17.0743 -22.14 288.34 78.8631 286.372
lowerback 3.97471 0.722538 8.29115
upperback 2.59578 1.42332 5.06804
thorax 0.522773 0.85685 0.550888
lowerneck -14.6295 -2.07466 -7.45659
upperneck 36.5816 0.830157 -0.235854
head 15.3017 -0.249082 1.48678
rclavicle -1.98785e-015 1.19271e-015
rhumerus -28.7761 -9.99503 -76.5618
rradius 25.7861
rwrist -9.91951
rhand -21.5695 13.5128
rfingers 7.12502
rthumb 4.82445 -16.4123
lclavicle -1.98785e-015 1.19271e-015
lhumerus -35.9839 11.334 86.0719
lradius 32.4345
lwrist -0.151219
lhand -17.2562 19.3085
lfingers 7.12502
lthumb 8.98816 49.0971
rfemur 1.41574 -4.23406 33.6532
rtibia 15.0058
rfoot -15.536 5.81449
rtoes 27.2759
lfemur -29.6694 2.68867 -8.1339
ltibia 60.1799
lfoot -12.2349 -3.58257
ltoes 6.88701
1477
root -12.3354 17.0719 -22.135 288.667 78.8023 286.447
lowerback 3.77371 0.95081 8.64973
upperback 2.55803 1.71525 5.02385
thorax 0.624581 1.00891 0.304295
lowerneck -15.2036 -2.40745 -8.89035
upperneck 37.271 0.44459 1.02867
head 15.804 -0.451129 2.22971
rclavicle 3.97569e-016 1.82882e-014
rhumerus -28.8704 -11.6255 -75.8217
rradius 25.6438
rwrist -8.33448
rhand -21.1664 13.4224
rfingers 7.12502
rthumb 5.21366 -16.4935
lclavicle 3.97569e-016 1.82882e-014
lhumerus -35.948 9.40923 87.0006
lradius 33.0472
lwrist 1.1822
lhand -18.5312 20.3498
lfingers 7.12502
lthumb 7.75762 50.1875
rfemur 1.40031 -4.40472 33.7177
rtibia 14.8121
rfoot -15.818 5.67825
rtoes 26.1623
lfemur -30.5049 3.14743 -8.38053
ltibia 59.9195
lfoot -12.1934 -3.62663
ltoes -1.97347
1478
root -12.2937 17.0757 -22.1417 289.027 78.9677 286.563
lowerback 3.6774 0.874508 8.75943
upperback 2.43141 1.60682 4.87248
thorax 0.548685 0.948419 0.0899816
lowerneck -15.2923 -2.32478 -9.13847
upperneck 37.4692 0.587834 1.27876
head 15.9154 -0.395278 2.41293
rclavicle 6.85807e-015 9.14409e-015
rhumerus -28.883 -11.4934 -75.938
rradius 25.5815
rwrist -8.54457
rhand -21.6674 13.2043
rfingers 7.12502
rthumb 4.72994 -16.7229
lclavicle 6.85807e-015 9.14409e-015
lhumerus -36.2128 8.78783 87.1509
lradius 33.5611
lwrist 2.40069
lhand -18.5233 20.8483
lfingers 7.12502
lthumb 7.76523 50.6857
rfemur 1.38359 -4.56743 33.4464
rtibia 14.6997
rfoot -15.9169 6.07245
rtoes 26.6764
lfemur -31.2499 3.26086 -8.85071
ltibia 59.4744
lfoot -12.1281 -3.91758
ltoes -3.14899
1479
root -12.2481 17.0673 -22.1126 288.148 78.6653 285.847
lowerback 3.97449 0.687986 8.79299
upperback 2.40811 1.40483 4.93576
thorax 0.344205 0.842613 0.135901
lowerneck -15.0731 -2.0664 -8.74099
upperneck 37.2254 0.884131 1.04446
head 15.7155 -0.242558 2.28439
rclavicle 7.15625e-015 2.26615e-014
rhumerus -29.0965 -8.43393 -77.0866
rradius 26.1123
rwrist -11.6377
rhand -22.0373 12.9151
rfingers 7.12502
rthumb 4.37276 -17.0198
lclavicle 7.15625e-015 2.26615e-014
lhumerus -36.466 8.77155 86.8776
lradius 33.8486
lwrist 2.89389
lhand -17.045 20.2762
lfingers 7.12502
lthumb 9.19194 50.0558
rfemur 1.89928 -4.3794 33.8919
rtibia 14.3743
rfoot -15.6309 6.40752
rtoes 28.9324
lfemur -31.5611 3.44469 -8.52427
ltibia 58.9006
lfoot -12.0888 -4.71942
ltoes -0.345024
1480
root -12.2046 17.0645 -22.0979 288.158 78.9935 285.766
lowerback 3.98386 0.721838 8.46773
upperback 2.37342 1.43153 4.76033
thorax 0.300285 0.846922 0.130754
lowerneck -14.7819 -2.02296 -8.13656
upperneck 36.8193 0.81779 0.676012
head 15.4455 -0.228482 1.99645
rclavicle 1.53064e-014 4.41302e-014
rhumerus -29.2018 -10.1944 -76.7131
rradius 25.8627
rwrist -9.87341
rhand -21.9286 13.118
rfingers 7.12502
rthumb 4.47769 -16.8147
lclavicle 1.53064e-014 4.41302e-014
lhumerus -36.425 8.68061 86.7467
lradius 33.9561
lwrist 2.61999
lhand -16.7649 19.9367
lfingers 7.12502
lthumb 9.4622 49.7043
rfemur 2.1177 -5.55475 33.4179
rtibia 13.9314
rfoot -15.3049 7.79492
rtoes 29.7921
lfemur -32.082 3.38554 -9.05373
ltibia 58.1355
lfoot -12.1202 -5.08803
ltoes 0.780565
1481
root -12.1611 17.0628 -22.0916 288.98 79.2683 286.349
lowerback 3.85079 0.843056 8.27142
upperback 2.31727 1.56812 4.69415
thorax 0.320783 0.910236 0.167599
lowerneck -14.6862 -2.13089 -8.42907
upperneck 36.6714 0.654142 0.861805
head 15.3606 -0.309549 2.09486
rclavicle -1.88845e-014 -9.54166e-015
rhumerus -29.3442 -10.9946 -76.4
rradius 25.8122
rwrist -8.9208
rhand -22.3668 12.921
rfingers 7.12502
rthumb 4.05456 -17.0201
lclavicle -1.88845e-014 -9.54166e-015
lhumerus -36.4786 8.21297 87.0282
lradius 34.1614
lwrist 2.66078
lhand -17.6624 20.3361
lfingers 7.12502
lthumb 8.59617 50.1411
rfemur 2.35568 -3.81478 33.3768
rtibia 13.3829
rfoot -15.6487 5.96723
rtoes 28.4137
lfemur -32.7365 3.33769 -9.61716
ltibia 57.2863
lfoot -12.4946 -4.90275
ltoes -1.46075
1482
root -12.1134 17.0665 -22.0766 289.103 79.2329 286.236
lowerback 3.74324 0.978021 8.42736
upperback 2.26958 1.74392 4.70506
thorax 0.346475 0.999293 0.0899173
lowerneck -14.8358 -2.30178 -8.90004
upperneck 36.7709 0.464806 1.15455
head 15.4606 -0.417222 2.27333
rclavicle 2.18663e-015 7.55382e-015
rhumerus -29.363 -11.0687 -76.2415
rradius 25.7554
rwrist -9.19522
rhand -22.2686 13.0057
rfingers 7.12502
rthumb 4.14943 -16.9336
lclavicle 2.18663e-015 7.55382e-015
lhumerus -36.5146 7.13053 87.6074
lradius 34.3311
lwrist 3.33599
lhand -18.2936 20.7322
lfingers 7.12502
lthumb 7.987 50.5612
rfemur 2.45851 -5.34393 33.2212
rtibia 12.8955
rfoot -15.1477 8.03792
rtoes 30.0576
lfemur -33.4097 3.43657 -9.73787
ltibia 56.3706
lfoot -12.7153 -4.83006
ltoes -4.44396
